<mxfile host="app.diagrams.net" modified="2022-12-24T09:51:51.099Z" agent="5.0 (Windows NT 10.0; Win64; x64) AppleWebKit/537.36 (KHTML, like Gecko) Chrome/108.0.0.0 Safari/537.36" version="20.7.4" etag="WGHhEbEGmKx6IM5kntli" type="github">
  <diagram id="hjzF-HwA34d62KVETL_W" name="第 1 页">
    <mxGraphModel dx="1050" dy="573" grid="0" gridSize="10" guides="1" tooltips="1" connect="1" arrows="1" fold="1" page="1" pageScale="1" pageWidth="827" pageHeight="1169" math="0" shadow="0">
      <root>
        <mxCell id="0" />
        <mxCell id="1" parent="0" />
        <mxCell id="UgP3HUgZwCAk563a6uqD-1" value="" style="rounded=0;whiteSpace=wrap;html=1;fillColor=#f8cecc;strokeColor=#b85450;" vertex="1" parent="1">
          <mxGeometry x="110" y="160" width="70" height="50" as="geometry" />
        </mxCell>
        <mxCell id="UgP3HUgZwCAk563a6uqD-3" value="" style="rounded=0;whiteSpace=wrap;html=1;fillColor=#d5e8d4;strokeColor=#82b366;" vertex="1" parent="1">
          <mxGeometry x="110" y="210" width="70" height="50" as="geometry" />
        </mxCell>
        <mxCell id="UgP3HUgZwCAk563a6uqD-4" value="" style="rounded=0;whiteSpace=wrap;html=1;fillColor=#d5e8d4;strokeColor=#82b366;" vertex="1" parent="1">
          <mxGeometry x="110" y="260" width="70" height="50" as="geometry" />
        </mxCell>
        <mxCell id="UgP3HUgZwCAk563a6uqD-5" value="" style="rounded=0;whiteSpace=wrap;html=1;fillColor=#d5e8d4;strokeColor=#82b366;" vertex="1" parent="1">
          <mxGeometry x="110" y="310" width="70" height="50" as="geometry" />
        </mxCell>
        <mxCell id="UgP3HUgZwCAk563a6uqD-6" value="" style="rounded=0;whiteSpace=wrap;html=1;fillColor=#d5e8d4;strokeColor=#82b366;" vertex="1" parent="1">
          <mxGeometry x="110" y="360" width="70" height="50" as="geometry" />
        </mxCell>
        <mxCell id="UgP3HUgZwCAk563a6uqD-7" value="" style="rounded=0;whiteSpace=wrap;html=1;fillColor=#d5e8d4;strokeColor=#82b366;" vertex="1" parent="1">
          <mxGeometry x="200" y="160" width="70" height="50" as="geometry" />
        </mxCell>
        <mxCell id="UgP3HUgZwCAk563a6uqD-8" value="" style="rounded=0;whiteSpace=wrap;html=1;fillColor=#f8cecc;strokeColor=#b85450;" vertex="1" parent="1">
          <mxGeometry x="200" y="210" width="70" height="50" as="geometry" />
        </mxCell>
        <mxCell id="UgP3HUgZwCAk563a6uqD-9" value="" style="rounded=0;whiteSpace=wrap;html=1;fillColor=#d5e8d4;strokeColor=#82b366;" vertex="1" parent="1">
          <mxGeometry x="200" y="260" width="70" height="50" as="geometry" />
        </mxCell>
        <mxCell id="UgP3HUgZwCAk563a6uqD-10" value="" style="rounded=0;whiteSpace=wrap;html=1;fillColor=#d5e8d4;strokeColor=#82b366;" vertex="1" parent="1">
          <mxGeometry x="200" y="310" width="70" height="50" as="geometry" />
        </mxCell>
        <mxCell id="UgP3HUgZwCAk563a6uqD-11" value="" style="rounded=0;whiteSpace=wrap;html=1;fillColor=#d5e8d4;strokeColor=#82b366;" vertex="1" parent="1">
          <mxGeometry x="200" y="360" width="70" height="50" as="geometry" />
        </mxCell>
        <mxCell id="UgP3HUgZwCAk563a6uqD-12" value="" style="rounded=0;whiteSpace=wrap;html=1;fillColor=#d5e8d4;strokeColor=#82b366;" vertex="1" parent="1">
          <mxGeometry x="290" y="160" width="70" height="50" as="geometry" />
        </mxCell>
        <mxCell id="UgP3HUgZwCAk563a6uqD-13" value="" style="rounded=0;whiteSpace=wrap;html=1;fillColor=#d5e8d4;strokeColor=#82b366;" vertex="1" parent="1">
          <mxGeometry x="290" y="210" width="70" height="50" as="geometry" />
        </mxCell>
        <mxCell id="UgP3HUgZwCAk563a6uqD-14" value="" style="rounded=0;whiteSpace=wrap;html=1;fillColor=#f8cecc;strokeColor=#b85450;" vertex="1" parent="1">
          <mxGeometry x="290" y="260" width="70" height="50" as="geometry" />
        </mxCell>
        <mxCell id="UgP3HUgZwCAk563a6uqD-15" value="" style="rounded=0;whiteSpace=wrap;html=1;fillColor=#d5e8d4;strokeColor=#82b366;" vertex="1" parent="1">
          <mxGeometry x="290" y="310" width="70" height="50" as="geometry" />
        </mxCell>
        <mxCell id="UgP3HUgZwCAk563a6uqD-16" value="" style="rounded=0;whiteSpace=wrap;html=1;fillColor=#d5e8d4;strokeColor=#82b366;" vertex="1" parent="1">
          <mxGeometry x="290" y="360" width="70" height="50" as="geometry" />
        </mxCell>
        <mxCell id="UgP3HUgZwCAk563a6uqD-17" value="" style="rounded=0;whiteSpace=wrap;html=1;fillColor=#d5e8d4;strokeColor=#82b366;" vertex="1" parent="1">
          <mxGeometry x="379" y="160" width="70" height="50" as="geometry" />
        </mxCell>
        <mxCell id="UgP3HUgZwCAk563a6uqD-18" value="" style="rounded=0;whiteSpace=wrap;html=1;fillColor=#d5e8d4;strokeColor=#82b366;" vertex="1" parent="1">
          <mxGeometry x="379" y="210" width="70" height="50" as="geometry" />
        </mxCell>
        <mxCell id="UgP3HUgZwCAk563a6uqD-19" value="" style="rounded=0;whiteSpace=wrap;html=1;fillColor=#d5e8d4;strokeColor=#82b366;" vertex="1" parent="1">
          <mxGeometry x="379" y="260" width="70" height="50" as="geometry" />
        </mxCell>
        <mxCell id="UgP3HUgZwCAk563a6uqD-20" value="" style="rounded=0;whiteSpace=wrap;html=1;fillColor=#f8cecc;strokeColor=#b85450;" vertex="1" parent="1">
          <mxGeometry x="379" y="310" width="70" height="50" as="geometry" />
        </mxCell>
        <mxCell id="UgP3HUgZwCAk563a6uqD-21" value="" style="rounded=0;whiteSpace=wrap;html=1;fillColor=#d5e8d4;strokeColor=#82b366;" vertex="1" parent="1">
          <mxGeometry x="379" y="360" width="70" height="50" as="geometry" />
        </mxCell>
        <mxCell id="UgP3HUgZwCAk563a6uqD-22" value="" style="rounded=0;whiteSpace=wrap;html=1;fillColor=#d5e8d4;strokeColor=#82b366;" vertex="1" parent="1">
          <mxGeometry x="470" y="160" width="70" height="50" as="geometry" />
        </mxCell>
        <mxCell id="UgP3HUgZwCAk563a6uqD-23" value="" style="rounded=0;whiteSpace=wrap;html=1;fillColor=#d5e8d4;strokeColor=#82b366;" vertex="1" parent="1">
          <mxGeometry x="470" y="210" width="70" height="50" as="geometry" />
        </mxCell>
        <mxCell id="UgP3HUgZwCAk563a6uqD-24" value="" style="rounded=0;whiteSpace=wrap;html=1;fillColor=#d5e8d4;strokeColor=#82b366;" vertex="1" parent="1">
          <mxGeometry x="470" y="260" width="70" height="50" as="geometry" />
        </mxCell>
        <mxCell id="UgP3HUgZwCAk563a6uqD-25" value="" style="rounded=0;whiteSpace=wrap;html=1;fillColor=#d5e8d4;strokeColor=#82b366;" vertex="1" parent="1">
          <mxGeometry x="470" y="310" width="70" height="50" as="geometry" />
        </mxCell>
        <mxCell id="UgP3HUgZwCAk563a6uqD-26" value="" style="rounded=0;whiteSpace=wrap;html=1;fillColor=#f8cecc;strokeColor=#b85450;" vertex="1" parent="1">
          <mxGeometry x="470" y="360" width="70" height="50" as="geometry" />
        </mxCell>
        <mxCell id="UgP3HUgZwCAk563a6uqD-27" value="" style="rounded=0;whiteSpace=wrap;html=1;fillColor=#d5e8d4;strokeColor=#82b366;" vertex="1" parent="1">
          <mxGeometry x="110" y="90" width="50" height="10" as="geometry" />
        </mxCell>
        <mxCell id="UgP3HUgZwCAk563a6uqD-28" value="" style="rounded=0;whiteSpace=wrap;html=1;fillColor=#f8cecc;strokeColor=#b85450;" vertex="1" parent="1">
          <mxGeometry x="110" y="110" width="50" height="10" as="geometry" />
        </mxCell>
        <mxCell id="UgP3HUgZwCAk563a6uqD-29" value="train" style="text;html=1;strokeColor=none;fillColor=none;align=center;verticalAlign=middle;whiteSpace=wrap;rounded=0;" vertex="1" parent="1">
          <mxGeometry x="150" y="80" width="60" height="30" as="geometry" />
        </mxCell>
        <mxCell id="UgP3HUgZwCAk563a6uqD-30" value="test" style="text;html=1;strokeColor=none;fillColor=none;align=center;verticalAlign=middle;whiteSpace=wrap;rounded=0;" vertex="1" parent="1">
          <mxGeometry x="150" y="100" width="60" height="30" as="geometry" />
        </mxCell>
      </root>
    </mxGraphModel>
  </diagram>
</mxfile>
